<svg width="32" height="32" viewBox="0 0 32 32" fill="none" xmlns="http://www.w3.org/2000/svg">
<path d="M19.3333 10.6667H18.6666H12.38C11.6666 10.6667 11.06 11.1133 10.92 11.74L10.0266 15.74C9.84663 16.5667 10.5466 17.3333 11.4866 17.3333H14.3066L13.2933 20.6267C13.08 21.3133 13.64 22 14.4133 22C14.8 22 15.1733 21.84 15.4266 21.5667L19.3333 17.3333H22V10.6667H19.3333ZM14.9333 21.1133C14.8066 21.2533 14.6133 21.3333 14.4133 21.3333C14.24 21.3333 14.08 21.26 13.9933 21.1333C13.9466 21.0667 13.8933 20.96 13.9333 20.82L14.9466 17.5267L15.2133 16.6667H14.3066H11.4866C11.2133 16.6667 10.9533 16.5533 10.8 16.36C10.72 16.26 10.6333 16.0933 10.68 15.88L11.5733 11.88C11.64 11.5667 11.98 11.3333 12.38 11.3333H18.6666V17.0733L14.9333 21.1133ZM21.3333 16.6667H19.3333V11.3333H21.3333V16.6667Z" fill="white"/>
</svg>
